<svg height="512pt" viewBox="0 0 512 512" width="512pt" xmlns="http://www.w3.org/2000/svg"><path d="m292.480469 512h-72.960938l-29.359375-62-24.769531-10.273438-64.605469 23.089844-51.601562-51.601562 23.089844-64.605469-10.273438-24.769531-62-29.359375v-72.960938l62-29.359375 10.273438-24.769531-23.089844-64.605469 51.601562-51.601562 64.640625 23.105468 24.71875-10.242187 29.375-62.046875h72.960938l29.375 62.046875 24.71875 10.242187 64.640625-23.105468 51.601562 51.601562-23.089844 64.605469 10.273438 24.769531 62 29.359375v72.960938l-62 29.359375-10.273438 24.769531 23.089844 64.605469-51.601562 51.601562-64.605469-23.089844-24.769531 10.273438zm0 0" fill="#ffcb5a"/><g fill="#fff"><path d="m256 192c35.347656 0 64 28.652344 64 64h32c.015625-50.367188-38.894531-92.183594-89.132812-95.785156-50.238282-3.601563-94.71875 32.230468-101.890626 82.085937-7.167968 49.851563 25.40625 96.773438 74.625 107.476563l-22.914062 22.910156 22.625 22.625 56.160156-56.160156-37.074218-74.304688-28.636719 14.304688 19.902343 39.792968c-32.863281-5.355468-56.101562-35.054687-53.402343-68.242187 2.703125-33.1875 30.441406-58.734375 63.738281-58.703125zm0 0"/><path d="m320 288h32v32h-32zm0 0"/></g></svg>